# MagicaVoxel @ Ephtracy

# group
o 

# material
mtllib puszka1.mtl
usemtl palette

# normals
vn -1 0 0
vn 1 0 0
vn 0 0 1
vn 0 0 -1
vn 0 -1 0
vn 0 1 0

# texcoords
vt 0.474609 0.5
vt 0.845703 0.5
vt 0.982422 0.5
vt 0.986328 0.5

# verts
v -0.9 0.2 -0.9
v -0.9 0.2 -1.2
v -0.9 0.3 -0.8
v -0.9 0.3 -0.9
v -0.9 0.3 -1
v -0.9 0.3 -1.1
v -0.9 0.3 -1.2
v -0.9 0.3 -1.3
v -0.9 0.5 -1
v -0.9 0.5 -1.1
v -0.9 0.6 -0.8
v -0.9 0.6 -0.9
v -0.9 0.6 -1.2
v -0.9 0.6 -1.3
v -0.9 0.7 -0.9
v -0.9 0.7 -1.2
v -0.8 0.2 -0.8
v -0.8 0.2 -0.9
v -0.8 0.2 -1.2
v -0.8 0.2 -1.3
v -0.8 0.3 -0.7
v -0.8 0.3 -0.8
v -0.8 0.3 -0.9
v -0.8 0.3 -1.2
v -0.8 0.3 -1.3
v -0.8 0.3 -1.4
v -0.8 0.5 -0.7
v -0.8 0.5 -0.8
v -0.8 0.5 -1.3
v -0.8 0.5 -1.4
v -0.7 0.1 -0.8
v -0.7 0.1 -1.3
v -0.7 0.2 -0.8
v -0.7 0.2 -1.3
v -0.4 0.5 -0.8
v -0.4 0.5 -1.3
v -0.4 0.6 -0.8
v -0.4 0.6 -1.3
v -0.3 0.6 -0.9
v -0.3 0.6 -1.2
v -0.3 0.7 -0.9
v -0.3 0.7 -1.2
v -0.2 0.2 -1
v -0.2 0.2 -1.1
v -0.2 0.3 -1
v -0.2 0.3 -1.1
v -0.7 0.2 -1
v -0.7 0.2 -1.1
v -0.7 0.3 -1
v -0.7 0.3 -1.1
v -0.6 0.6 -0.9
v -0.6 0.6 -1.2
v -0.6 0.7 -0.9
v -0.6 0.7 -1.2
v -0.5 0.5 -0.8
v -0.5 0.5 -1.3
v -0.5 0.6 -0.8
v -0.5 0.6 -1.3
v -0.2 0.1 -0.8
v -0.2 0.1 -1.3
v -0.2 0.2 -0.8
v -0.2 0.2 -1.3
v -0.1 0.2 -0.8
v -0.1 0.2 -0.9
v -0.1 0.2 -1.2
v -0.1 0.2 -1.3
v -0.1 0.3 -0.7
v -0.1 0.3 -0.8
v -0.1 0.3 -0.9
v -0.1 0.3 -1.2
v -0.1 0.3 -1.3
v -0.1 0.3 -1.4
v -0.1 0.5 -0.7
v -0.1 0.5 -0.8
v -0.1 0.5 -1.3
v -0.1 0.5 -1.4
v 0 0.2 -0.9
v 0 0.2 -1.2
v 0 0.3 -0.8
v 0 0.3 -0.9
v 0 0.3 -1
v 0 0.3 -1.1
v 0 0.3 -1.2
v 0 0.3 -1.3
v 0 0.5 -1
v 0 0.5 -1.1
v 0 0.6 -0.8
v 0 0.6 -0.9
v 0 0.6 -1.2
v 0 0.6 -1.3
v 0 0.7 -0.9
v 0 0.7 -1.2
v -0.8 0.3 -0.7
v -0.8 0.5 -0.7
v -0.1 0.3 -0.7
v -0.1 0.5 -0.7
v -0.9 0.3 -0.8
v -0.9 0.6 -0.8
v -0.8 0.2 -0.8
v -0.8 0.3 -0.8
v -0.8 0.5 -0.8
v -0.8 0.6 -0.8
v -0.7 0.1 -0.8
v -0.7 0.2 -0.8
v -0.5 0.5 -0.8
v -0.5 0.6 -0.8
v -0.4 0.5 -0.8
v -0.4 0.6 -0.8
v -0.2 0.1 -0.8
v -0.2 0.2 -0.8
v -0.1 0.2 -0.8
v -0.1 0.3 -0.8
v -0.1 0.5 -0.8
v -0.1 0.6 -0.8
v 0 0.3 -0.8
v 0 0.6 -0.8
v -0.9 0.2 -0.9
v -0.9 0.3 -0.9
v -0.9 0.6 -0.9
v -0.9 0.7 -0.9
v -0.8 0.2 -0.9
v -0.8 0.3 -0.9
v -0.8 0.6 -0.9
v -0.8 0.7 -0.9
v -0.6 0.6 -0.9
v -0.6 0.7 -0.9
v -0.3 0.6 -0.9
v -0.3 0.7 -0.9
v -0.1 0.2 -0.9
v -0.1 0.3 -0.9
v -0.1 0.6 -0.9
v -0.1 0.7 -0.9
v 0 0.2 -0.9
v 0 0.3 -0.9
v 0 0.6 -0.9
v 0 0.7 -0.9
v -0.7 0.2 -1.1
v -0.7 0.3 -1.1
v -0.6 0.2 -1.1
v -0.6 0.3 -1.1
v -0.2 0.2 -1.1
v -0.2 0.3 -1.1
v -0.7 0.2 -1
v -0.7 0.3 -1
v -0.6 0.2 -1
v -0.6 0.3 -1
v -0.2 0.2 -1
v -0.2 0.3 -1
v -0.9 0.2 -1.2
v -0.9 0.3 -1.2
v -0.9 0.6 -1.2
v -0.9 0.7 -1.2
v -0.8 0.2 -1.2
v -0.8 0.3 -1.2
v -0.8 0.6 -1.2
v -0.8 0.7 -1.2
v -0.6 0.6 -1.2
v -0.6 0.7 -1.2
v -0.3 0.6 -1.2
v -0.3 0.7 -1.2
v -0.1 0.2 -1.2
v -0.1 0.3 -1.2
v -0.1 0.6 -1.2
v -0.1 0.7 -1.2
v 0 0.2 -1.2
v 0 0.3 -1.2
v 0 0.6 -1.2
v 0 0.7 -1.2
v -0.9 0.3 -1.3
v -0.9 0.6 -1.3
v -0.8 0.2 -1.3
v -0.8 0.3 -1.3
v -0.8 0.5 -1.3
v -0.8 0.6 -1.3
v -0.7 0.1 -1.3
v -0.7 0.2 -1.3
v -0.5 0.5 -1.3
v -0.5 0.6 -1.3
v -0.4 0.5 -1.3
v -0.4 0.6 -1.3
v -0.2 0.1 -1.3
v -0.2 0.2 -1.3
v -0.1 0.2 -1.3
v -0.1 0.3 -1.3
v -0.1 0.5 -1.3
v -0.1 0.6 -1.3
v 0 0.3 -1.3
v 0 0.6 -1.3
v -0.8 0.3 -1.4
v -0.8 0.5 -1.4
v -0.1 0.3 -1.4
v -0.1 0.5 -1.4
v -0.7 0.1 -0.8
v -0.2 0.1 -0.8
v -0.7 0.1 -1.3
v -0.2 0.1 -1.3
v -0.8 0.2 -0.8
v -0.7 0.2 -0.8
v -0.2 0.2 -0.8
v -0.1 0.2 -0.8
v -0.9 0.2 -0.9
v -0.8 0.2 -0.9
v -0.1 0.2 -0.9
v 0 0.2 -0.9
v -0.9 0.2 -1.2
v -0.8 0.2 -1.2
v -0.1 0.2 -1.2
v 0 0.2 -1.2
v -0.8 0.2 -1.3
v -0.7 0.2 -1.3
v -0.2 0.2 -1.3
v -0.1 0.2 -1.3
v -0.8 0.3 -0.7
v -0.1 0.3 -0.7
v -0.9 0.3 -0.8
v -0.8 0.3 -0.8
v -0.1 0.3 -0.8
v 0 0.3 -0.8
v -0.9 0.3 -0.9
v -0.8 0.3 -0.9
v -0.1 0.3 -0.9
v 0 0.3 -0.9
v -0.7 0.3 -1
v -0.6 0.3 -1
v -0.2 0.3 -1
v -0.7 0.3 -1.1
v -0.6 0.3 -1.1
v -0.2 0.3 -1.1
v -0.9 0.3 -1.2
v -0.8 0.3 -1.2
v -0.1 0.3 -1.2
v 0 0.3 -1.2
v -0.9 0.3 -1.3
v -0.8 0.3 -1.3
v -0.1 0.3 -1.3
v 0 0.3 -1.3
v -0.8 0.3 -1.4
v -0.1 0.3 -1.4
v -0.7 0.2 -1
v -0.6 0.2 -1
v -0.2 0.2 -1
v -0.7 0.2 -1.1
v -0.6 0.2 -1.1
v -0.2 0.2 -1.1
v -0.8 0.5 -0.7
v -0.1 0.5 -0.7
v -0.8 0.5 -0.8
v -0.5 0.5 -0.8
v -0.4 0.5 -0.8
v -0.1 0.5 -0.8
v -0.8 0.5 -1.3
v -0.5 0.5 -1.3
v -0.4 0.5 -1.3
v -0.1 0.5 -1.3
v -0.8 0.5 -1.4
v -0.1 0.5 -1.4
v -0.9 0.6 -0.8
v -0.8 0.6 -0.8
v -0.5 0.6 -0.8
v -0.4 0.6 -0.8
v -0.1 0.6 -0.8
v 0 0.6 -0.8
v -0.9 0.6 -0.9
v -0.8 0.6 -0.9
v -0.6 0.6 -0.9
v -0.3 0.6 -0.9
v -0.1 0.6 -0.9
v 0 0.6 -0.9
v -0.9 0.6 -1.2
v -0.8 0.6 -1.2
v -0.6 0.6 -1.2
v -0.3 0.6 -1.2
v -0.1 0.6 -1.2
v 0 0.6 -1.2
v -0.9 0.6 -1.3
v -0.8 0.6 -1.3
v -0.5 0.6 -1.3
v -0.4 0.6 -1.3
v -0.1 0.6 -1.3
v 0 0.6 -1.3
v -0.9 0.7 -0.9
v -0.8 0.7 -0.9
v -0.6 0.7 -0.9
v -0.3 0.7 -0.9
v -0.1 0.7 -0.9
v 0 0.7 -0.9
v -0.9 0.7 -1.2
v -0.8 0.7 -1.2
v -0.6 0.7 -1.2
v -0.3 0.7 -1.2
v -0.1 0.7 -1.2
v 0 0.7 -1.2

# faces
f 4/4/1 2/4/1 1/4/1
f 5/4/1 2/4/1 4/4/1
f 6/4/1 2/4/1 5/4/1
f 7/4/1 2/4/1 6/4/1
f 9/3/1 5/3/1 4/3/1
f 9/4/1 6/4/1 5/4/1
f 10/3/1 7/3/1 6/3/1
f 10/4/1 6/4/1 9/4/1
f 11/4/1 4/4/1 3/4/1
f 12/3/1 9/3/1 4/3/1
f 12/4/1 4/4/1 11/4/1
f 12/3/1 10/3/1 9/3/1
f 13/3/1 7/3/1 10/3/1
f 13/3/1 10/3/1 12/3/1
f 13/4/1 8/4/1 7/4/1
f 14/4/1 8/4/1 13/4/1
f 15/4/1 13/4/1 12/4/1
f 16/4/1 13/4/1 15/4/1
f 22/2/1 18/2/1 17/2/1
f 23/2/1 18/2/1 22/2/1
f 24/2/1 20/2/1 19/2/1
f 25/2/1 20/2/1 24/2/1
f 27/2/1 22/2/1 21/2/1
f 28/2/1 22/2/1 27/2/1
f 29/2/1 26/2/1 25/2/1
f 30/2/1 26/2/1 29/2/1
f 33/2/1 32/2/1 31/2/1
f 34/2/1 32/2/1 33/2/1
f 37/2/1 36/2/1 35/2/1
f 38/2/1 36/2/1 37/2/1
f 41/2/1 40/2/1 39/2/1
f 42/2/1 40/2/1 41/2/1
f 45/2/1 44/2/1 43/2/1
f 46/2/1 44/2/1 45/2/1
f 47/2/2 48/2/2 49/2/2
f 49/2/2 48/2/2 50/2/2
f 51/2/2 52/2/2 53/2/2
f 53/2/2 52/2/2 54/2/2
f 55/2/2 56/2/2 57/2/2
f 57/2/2 56/2/2 58/2/2
f 59/2/2 60/2/2 61/2/2
f 61/2/2 60/2/2 62/2/2
f 63/2/2 64/2/2 68/2/2
f 68/2/2 64/2/2 69/2/2
f 65/2/2 66/2/2 70/2/2
f 70/2/2 66/2/2 71/2/2
f 67/2/2 68/2/2 73/2/2
f 73/2/2 68/2/2 74/2/2
f 71/2/2 72/2/2 75/2/2
f 75/2/2 72/2/2 76/2/2
f 77/4/2 78/4/2 80/4/2
f 80/4/2 78/4/2 81/4/2
f 81/4/2 78/4/2 82/4/2
f 82/4/2 78/4/2 83/4/2
f 80/3/2 81/3/2 85/3/2
f 81/4/2 82/4/2 85/4/2
f 82/3/2 83/3/2 86/3/2
f 85/4/2 82/4/2 86/4/2
f 79/4/2 80/4/2 87/4/2
f 80/3/2 85/3/2 88/3/2
f 87/4/2 80/4/2 88/4/2
f 85/3/2 86/3/2 88/3/2
f 86/3/2 83/3/2 89/3/2
f 88/3/2 86/3/2 89/3/2
f 83/4/2 84/4/2 89/4/2
f 89/4/2 84/4/2 90/4/2
f 88/4/2 89/4/2 91/4/2
f 91/4/2 89/4/2 92/4/2
f 95/2/3 94/2/3 93/2/3
f 96/2/3 94/2/3 95/2/3
f 100/4/3 98/4/3 97/4/3
f 101/4/3 98/4/3 100/4/3
f 102/4/3 98/4/3 101/4/3
f 104/2/3 100/2/3 99/2/3
f 105/2/3 102/2/3 101/2/3
f 106/2/3 102/2/3 105/2/3
f 109/2/3 104/2/3 103/2/3
f 110/2/3 100/2/3 104/2/3
f 110/2/3 104/2/3 109/2/3
f 111/2/3 100/2/3 110/2/3
f 112/2/3 100/2/3 111/2/3
f 113/2/3 108/2/3 107/2/3
f 114/2/3 108/2/3 113/2/3
f 115/4/3 113/4/3 112/4/3
f 115/4/3 114/4/3 113/4/3
f 116/4/3 114/4/3 115/4/3
f 121/4/3 118/4/3 117/4/3
f 122/4/3 118/4/3 121/4/3
f 123/4/3 120/4/3 119/4/3
f 124/4/3 120/4/3 123/4/3
f 125/2/3 124/2/3 123/2/3
f 126/2/3 124/2/3 125/2/3
f 131/2/3 128/2/3 127/2/3
f 132/2/3 128/2/3 131/2/3
f 133/4/3 130/4/3 129/4/3
f 134/4/3 130/4/3 133/4/3
f 135/4/3 132/4/3 131/4/3
f 136/4/3 132/4/3 135/4/3
f 139/2/3 138/2/3 137/2/3
f 140/2/3 138/2/3 139/2/3
f 141/1/3 140/1/3 139/1/3
f 142/1/3 140/1/3 141/1/3
f 143/2/4 144/2/4 145/2/4
f 145/2/4 144/2/4 146/2/4
f 145/1/4 146/1/4 147/1/4
f 147/1/4 146/1/4 148/1/4
f 149/4/4 150/4/4 153/4/4
f 153/4/4 150/4/4 154/4/4
f 151/4/4 152/4/4 155/4/4
f 155/4/4 152/4/4 156/4/4
f 155/2/4 156/2/4 157/2/4
f 157/2/4 156/2/4 158/2/4
f 159/2/4 160/2/4 163/2/4
f 163/2/4 160/2/4 164/2/4
f 161/4/4 162/4/4 165/4/4
f 165/4/4 162/4/4 166/4/4
f 163/4/4 164/4/4 167/4/4
f 167/4/4 164/4/4 168/4/4
f 169/4/4 170/4/4 172/4/4
f 172/4/4 170/4/4 173/4/4
f 173/4/4 170/4/4 174/4/4
f 171/2/4 172/2/4 176/2/4
f 173/2/4 174/2/4 177/2/4
f 177/2/4 174/2/4 178/2/4
f 175/2/4 176/2/4 181/2/4
f 176/2/4 172/2/4 182/2/4
f 181/2/4 176/2/4 182/2/4
f 182/2/4 172/2/4 183/2/4
f 183/2/4 172/2/4 184/2/4
f 179/2/4 180/2/4 185/2/4
f 185/2/4 180/2/4 186/2/4
f 184/4/4 185/4/4 187/4/4
f 185/4/4 186/4/4 187/4/4
f 187/4/4 186/4/4 188/4/4
f 189/2/4 190/2/4 191/2/4
f 191/2/4 190/2/4 192/2/4
f 195/2/5 194/2/5 193/2/5
f 196/2/5 194/2/5 195/2/5
f 202/2/5 198/2/5 197/2/5
f 203/2/5 200/2/5 199/2/5
f 205/4/5 202/4/5 201/4/5
f 206/2/5 198/2/5 202/2/5
f 206/4/5 202/4/5 205/4/5
f 207/4/5 204/4/5 203/4/5
f 207/2/5 203/2/5 199/2/5
f 208/4/5 204/4/5 207/4/5
f 209/2/5 198/2/5 206/2/5
f 210/2/5 198/2/5 209/2/5
f 211/2/5 207/2/5 199/2/5
f 212/2/5 207/2/5 211/2/5
f 216/2/5 214/2/5 213/2/5
f 217/2/5 214/2/5 216/2/5
f 219/4/5 216/4/5 215/4/5
f 220/4/5 216/4/5 219/4/5
f 221/4/5 218/4/5 217/4/5
f 222/4/5 218/4/5 221/4/5
f 226/1/5 224/1/5 223/1/5
f 226/1/5 225/1/5 224/1/5
f 227/1/5 225/1/5 226/1/5
f 228/1/5 225/1/5 227/1/5
f 233/4/5 230/4/5 229/4/5
f 234/4/5 230/4/5 233/4/5
f 235/4/5 232/4/5 231/4/5
f 236/4/5 232/4/5 235/4/5
f 237/2/5 235/2/5 234/2/5
f 238/2/5 235/2/5 237/2/5
f 239/2/6 240/2/6 242/2/6
f 240/2/6 241/2/6 242/2/6
f 242/2/6 241/2/6 243/2/6
f 243/2/6 241/2/6 244/2/6
f 245/2/6 246/2/6 247/2/6
f 247/2/6 246/2/6 248/2/6
f 248/2/6 246/2/6 249/2/6
f 249/2/6 246/2/6 250/2/6
f 248/2/6 249/2/6 252/2/6
f 252/2/6 249/2/6 253/2/6
f 251/2/6 252/2/6 255/2/6
f 253/2/6 254/2/6 255/2/6
f 252/2/6 253/2/6 255/2/6
f 255/2/6 254/2/6 256/2/6
f 257/4/6 258/4/6 263/4/6
f 258/2/6 259/2/6 264/2/6
f 263/4/6 258/4/6 264/4/6
f 264/2/6 259/2/6 265/2/6
f 260/2/6 261/2/6 266/2/6
f 261/4/6 262/4/6 267/4/6
f 266/2/6 261/2/6 267/2/6
f 267/4/6 262/4/6 268/4/6
f 265/2/6 259/2/6 271/2/6
f 260/2/6 266/2/6 272/2/6
f 269/4/6 270/4/6 275/4/6
f 270/2/6 271/2/6 276/2/6
f 275/4/6 270/4/6 276/4/6
f 271/2/6 259/2/6 277/2/6
f 276/2/6 271/2/6 277/2/6
f 260/2/6 272/2/6 278/2/6
f 272/2/6 273/2/6 278/2/6
f 273/4/6 274/4/6 279/4/6
f 278/2/6 273/2/6 279/2/6
f 279/4/6 274/4/6 280/4/6
f 281/4/6 282/4/6 287/4/6
f 282/2/6 283/2/6 288/2/6
f 287/4/6 282/4/6 288/4/6
f 288/2/6 283/2/6 289/2/6
f 284/2/6 285/2/6 290/2/6
f 285/4/6 286/4/6 291/4/6
f 290/2/6 285/2/6 291/2/6
f 291/4/6 286/4/6 292/4/6
